<?xml version="1.0" encoding="UTF-8"?>
<svg width="28px" height="28px" viewBox="0 0 28 28" version="1.1" xmlns="http://www.w3.org/2000/svg" xmlns:xlink="http://www.w3.org/1999/xlink">
    <!-- Generator: Sketch 53.2 (72643) - https://sketchapp.com -->
    <title>Group</title>
    <desc>Created with Sketch.</desc>
    <g id="Page-1" stroke="none" stroke-width="1" fill="none" fill-rule="evenodd">
        <g id="Group">
            <circle id="Oval" stroke="#979797" fill="#FFFFFF" cx="14" cy="14" r="8"></circle>
            <path d="M17.5227273,10.4772727 C18.5075,11.4620455 19,12.6363636 19,14 C19,15.3636364 18.5075,16.5379545 17.5227273,17.5227273 C16.5379545,18.5075 15.3636364,19 14,19 C12.6363636,19 11.4620455,18.5075 10.4772727,17.5227273 C9.4925,16.5379545 9,15.3636364 9,14 C9,12.6363636 9.4925,11.4620455 10.4772727,10.4772727 C11.4620455,9.4925 12.6363636,9 14,9 C15.3636364,9 16.5379545,9.4925 17.5227273,10.4772727 Z" id="Fill-1" fill="#0066FF"></path>
            <path d="M17.5273438,20.0703125 C18.6029375,19.4505937 19.4505937,18.6029375 20.0703125,17.5273438 C20.6900313,16.45175 21,15.2759688 21,14 C21,12.7240312 20.6900313,11.54825 20.0703125,10.4726562 C19.4505937,9.3970625 18.6029375,8.54940625 17.5273438,7.9296875 C16.45175,7.30996875 15.2759688,7 14,7 C12.7240312,7 11.54825,7.30996875 10.4726562,7.9296875 C9.3970625,8.54940625 8.54940625,9.3970625 7.9296875,10.4726562 C7.30996875,11.54825 7,12.7240312 7,14 C7,15.2759688 7.30996875,16.45175 7.9296875,17.5273438 C8.54940625,18.6029375 9.3970625,19.4505937 10.4726562,20.0703125 C11.54825,20.6900313 12.7240312,21 14,21 C15.2759688,21 16.45175,20.6900313 17.5273438,20.0703125 Z M27.125,12.25 C27.3802812,12.25 27.5898438,12.3320312 27.7539062,12.4960938 C27.9179688,12.6601562 28,12.8697188 28,13.125 L28,14.875 C28,15.1302812 27.9179688,15.3398438 27.7539062,15.5039062 C27.5898438,15.6679688 27.3802812,15.75 27.125,15.75 L24.3359375,15.75 C23.9712813,17.9375 22.9960938,19.8242188 21.4101562,21.4101562 C19.8242188,22.9960938 17.9375,23.9712813 15.75,24.3359375 L15.75,27.125 C15.75,27.3802812 15.6679688,27.5898438 15.5039062,27.7539062 C15.3398438,27.9179688 15.1302812,28 14.875,28 L13.125,28 C12.8697188,28 12.6601562,27.9179688 12.4960938,27.7539062 C12.3320312,27.5898438 12.25,27.3802812 12.25,27.125 L12.25,24.3359375 C10.0625,23.9712813 8.17578125,22.9960938 6.58984375,21.4101562 C5.00390625,19.8242188 4.02871875,17.9375 3.6640625,15.75 L0.875,15.75 C0.61971875,15.75 0.41015625,15.6679688 0.24609375,15.5039062 C0.08203125,15.3398438 0,15.1302812 0,14.875 L0,13.125 C0,12.8697188 0.08203125,12.6601562 0.24609375,12.4960938 C0.41015625,12.3320312 0.61971875,12.25 0.875,12.25 L3.6640625,12.25 C4.02871875,10.0625 5.00390625,8.17578125 6.58984375,6.58984375 C8.17578125,5.00390625 10.0625,4.02871875 12.25,3.6640625 L12.25,0.875 C12.25,0.61971875 12.3320312,0.41015625 12.4960938,0.24609375 C12.6601562,0.08203125 12.8697188,0 13.125,0 L14.875,0 C15.1302812,0 15.3398438,0.08203125 15.5039062,0.24609375 C15.6679688,0.41015625 15.75,0.61971875 15.75,0.875 L15.75,3.6640625 C17.9375,4.02871875 19.8242188,5.00390625 21.4101562,6.58984375 C22.9960938,8.17578125 23.9712813,10.0625 24.3359375,12.25 L27.125,12.25 Z" id="Fill-1" fill="#0066FF"></path>
        </g>
    </g>
</svg>